# File created by Blade
# Date/Time:  Wed Jan 21 14:37:15 2015
# Frame Rate: 120.000 fps
#------------------------------------------------------
:FULLY-SPECIFIED
:DEGREES
221
root 18.619659 35.619527 -20.879976 -174.464213 -7.995450 -180.135191
Spine -15.054107 4.125764 2.864499
Head -1.136196 -8.583235 -4.497742
LeftShoulder 17.042566 -34.463965 -18.528102
LeftArm 17.930383 24.212630 -77.165043
LeftForeArm -47.254487 -0.000000 140.046377
LeftHand 1.077539 0.000000 21.660758
LeftHandThumb1 -26.253704 0.000000 33.147579
RightShoulder 15.796808 60.391424 -34.721558
RightArm 96.654295 -30.375802 61.723515
RightForeArm -52.381842 0.000000 116.428643
RightHand -6.079940 -0.000000 7.137119
RightHandThumb1 -24.326973 -0.000000 -32.862282
LeftUpLeg -0.755825 9.161427 0.297693
LeftLeg -5.465589 -0.000000 0.000000
LeftFoot -17.410012 26.745715 -11.783809
LeftToeBase 26.612589 -0.000000 -0.000000
RightUpLeg 0.342531 -12.502706 0.262362
RightLeg -3.079166 -0.000000 0.000000
RightFoot -20.465711 -28.886084 13.434833
RightToeBase 23.917097 -0.000000 -0.000000
222
root 18.618581 35.620668 -20.881045 -174.452416 -7.992944 -180.149337
Spine -15.048915 4.138351 2.898417
Head -1.198648 -8.446417 -4.630965
LeftShoulder 16.993702 -34.587649 -18.533531
LeftArm 17.872334 24.203569 -77.234500
LeftForeArm -46.160250 0.000000 140.081509
LeftHand 0.838317 0.000000 22.232833
LeftHandThumb1 -26.253704 0.000000 33.147579
RightShoulder 15.813079 60.383220 -34.689997
RightArm 96.712112 -30.391799 61.783141
RightForeArm -52.587197 -0.000000 116.765554
RightHand -6.110668 -0.000000 6.957629
RightHandThumb1 -24.326973 -0.000000 -32.862282
LeftUpLeg -0.756974 9.168594 0.280391
LeftLeg -5.480995 -0.000000 0.000000
LeftFoot -17.397269 26.739396 -11.810170
LeftToeBase 26.631014 -0.000000 -0.000000
RightUpLeg 0.338517 -12.514484 0.248116
RightLeg -3.088437 -0.000000 0.000000
RightFoot -20.473496 -28.888419 13.435921
RightToeBase 23.948747 -0.000000 -0.000000
223
root 18.617998 35.621163 -20.881662 -174.427027 -7.990850 -180.150412
Spine -15.066631 4.179493 2.920768
Head -1.236964 -8.321043 -4.713013
LeftShoulder 17.005049 -34.694045 -18.540887
LeftArm 17.789568 24.180132 -77.324241
LeftForeArm -45.368654 0.000000 140.109907
LeftHand 0.749074 0.000000 22.485893
LeftHandThumb1 -26.253704 0.000000 33.147579
RightShoulder 15.877975 60.380304 -34.624164
RightArm 96.706606 -30.388856 61.899397
RightForeArm -52.576940 -0.000000 117.122007
RightHand -6.190985 -0.000000 6.940643
RightHandThumb1 -24.326973 -0.000000 -32.862282
LeftUpLeg -0.765504 9.159647 0.275132
LeftLeg -5.509088 -0.000000 0.000000
LeftFoot -17.375728 26.744011 -11.816811
LeftToeBase 26.609401 -0.000000 -0.000000
RightUpLeg 0.321323 -12.531493 0.251317
RightLeg -3.104184 -0.000000 0.000000
RightFoot -20.452437 -28.859024 13.444642
RightToeBase 23.919574 -0.000000 -0.000000
224
root 18.617456 35.621447 -20.883305 -174.412155 -8.002929 -180.154634
Spine -15.075058 4.205196 2.950993
Head -1.276908 -8.186205 -4.818576
LeftShoulder 17.039733 -34.787580 -18.588555
LeftArm 17.722600 24.124000 -77.367526
LeftForeArm -44.697486 0.000000 140.159531
LeftHand 0.601826 -0.000000 22.710162
LeftHandThumb1 -26.253704 0.000000 33.147579
RightShoulder 15.948504 60.372250 -34.586294
RightArm 96.668426 -30.360807 62.041685
RightForeArm -52.566735 0.000000 117.464494
RightHand -6.131107 -0.000000 6.910680
RightHandThumb1 -24.326973 -0.000000 -32.862282
LeftUpLeg -0.771143 9.153696 0.270094
LeftLeg -5.522754 -0.000000 0.000000
LeftFoot -17.357681 26.738310 -11.820311
LeftToeBase 26.574095 -0.000000 -0.000000
RightUpLeg 0.321454 -12.547624 0.249043
RightLeg -3.123796 -0.000000 0.000000
RightFoot -20.445625 -28.869536 13.444630
RightToeBase 23.906742 -0.000000 -0.000000
225
root 18.616894 35.621807 -20.882639 -174.383065 -7.991558 -180.162575
Spine -15.102353 4.269624 2.976354
Head -1.290196 -8.066687 -4.945174
LeftShoulder 17.064629 -34.809751 -18.642684
LeftArm 17.760396 24.120685 -77.344646
LeftForeArm -43.968814 -0.000000 140.215815
LeftHand 0.444266 -0.000000 23.093315
LeftHandThumb1 -26.253704 0.000000 33.147579
RightShoulder 15.957297 60.349319 -34.567410
RightArm 96.600454 -30.352464 62.188612
RightForeArm -52.592604 0.000000 117.724465
RightHand -6.104508 -0.000000 6.814187
RightHandThumb1 -24.326973 -0.000000 -32.862282
LeftUpLeg -0.788453 9.160993 0.255154
LeftLeg -5.545413 -0.000000 0.000000
LeftFoot -17.354463 26.736741 -11.853875
LeftToeBase 26.538680 -0.000000 -0.000000
RightUpLeg 0.291054 -12.519010 0.245793
RightLeg -3.123434 -0.000000 0.000000
RightFoot -20.443044 -28.886013 13.427098
RightToeBase 23.958735 -0.000000 -0.000000
226
root 18.616307 35.622562 -20.882692 -174.365783 -7.993917 -180.173148
Spine -15.116979 4.304957 3.001385
Head -1.294722 -7.965055 -5.073144
LeftShoulder 17.102233 -34.849920 -18.708367
LeftArm 17.746763 24.064237 -77.327739
LeftForeArm -43.517836 0.000000 140.255027
LeftHand 0.321738 -0.000000 23.298668
LeftHandThumb1 -26.253704 0.000000 33.147579
RightShoulder 16.078264 60.440875 -34.463136
RightArm 96.392645 -30.381307 62.390413
RightForeArm -52.526458 -0.000000 118.017244
RightHand -6.117222 0.000000 6.763983
RightHandThumb1 -24.326973 -0.000000 -32.862282
LeftUpLeg -0.800925 9.169987 0.241126
LeftLeg -5.552537 -0.000000 0.000000
LeftFoot -17.339598 26.726151 -11.864333
LeftToeBase 26.537182 -0.000000 -0.000000
RightUpLeg 0.277628 -12.534703 0.238807
RightLeg -3.129750 -0.000000 0.000000
RightFoot -20.434658 -28.870809 13.446401
RightToeBase 23.904863 -0.000000 -0.000000
